<svg width="217" height="51" viewBox="0 0 217 51" fill="none" xmlns="http://www.w3.org/2000/svg">
<path d="M184.989 30.6001H216.189V36.3001H184.989V30.6001ZM196.839 35.9101H204.339V49.8001H196.839V35.9101Z" fill="#FBF5F1"/>
<path d="M160.2 46.8901V42.3901H180.72V46.8901H160.2ZM153.48 49.8001L166.35 30.6001H174.69L187.68 49.8001H179.43L168.3 32.6101H172.77L161.73 49.8001H153.48Z" fill="#FBF5F1"/>
<path d="M128.591 41.7001V44.1001H151.391V49.8001H121.091V30.6001H151.331V36.3001H128.591V38.7001H147.191V41.7001H128.591Z" fill="#FBF5F1"/>
<path d="M102.9 43.9201L100.11 45.5101V30.6001H107.61V49.8001H100.11L77.5198 36.7201L80.3098 35.1001V49.8001H72.8098V30.6001H80.3098L102.9 43.9201Z" fill="#FBF5F1"/>
<path d="M42.9251 46.8901V42.3901H63.4451V46.8901H42.9251ZM36.2051 49.8001L49.0751 30.6001H57.4151L70.4051 49.8001H62.1551L51.0251 32.6101H55.4951L44.4551 49.8001H36.2051Z" fill="#FBF5F1"/>
<path d="M35.85 41.79C35.75 43.69 35.06 45.28 33.78 46.56C32.5 47.84 30.61 48.8 28.11 49.44C25.63 50.08 22.49 50.4 18.69 50.4C15.79 50.4 13.19 50.24 10.89 49.92C8.59 49.62 6.63 49.1 5.01 48.36C3.39 47.6 2.15 46.57 1.29 45.27C0.43 43.97 0 42.33 0 40.35C0 38.37 0.43 36.72 1.29 35.4C2.15 34.06 3.39 33 5.01 32.22C6.63 31.42 8.59 30.85 10.89 30.51C13.19 30.17 15.79 30 18.69 30C22.49 30 25.64 30.35 28.14 31.05C30.64 31.73 32.53 32.74 33.81 34.08C35.09 35.42 35.78 37.05 35.88 38.97H28.08C27.84 38.33 27.4 37.77 26.76 37.29C26.12 36.79 25.16 36.4 23.88 36.12C22.6 35.84 20.87 35.7 18.69 35.7C16.13 35.7 14.05 35.86 12.45 36.18C10.85 36.48 9.68 36.97 8.94 37.65C8.2 38.33 7.83 39.23 7.83 40.35C7.83 41.37 8.2 42.2 8.94 42.84C9.68 43.48 10.85 43.95 12.45 44.25C14.05 44.55 16.13 44.7 18.69 44.7C20.87 44.7 22.59 44.57 23.85 44.31C25.13 44.05 26.09 43.7 26.73 43.26C27.37 42.8 27.81 42.31 28.05 41.79H35.85Z" fill="#FBF5F1"/>
<path d="M202.67 8.8501V0.600098H210.17V10.2001C210.17 11.9001 209.85 13.3501 209.21 14.5501C208.59 15.7301 207.72 16.7101 206.6 17.4901C205.48 18.2501 204.19 18.8401 202.73 19.2601C201.27 19.6801 199.7 19.9701 198.02 20.1301C196.36 20.3101 194.67 20.4001 192.95 20.4001C191.13 20.4001 189.37 20.3101 187.67 20.1301C185.97 19.9701 184.39 19.6801 182.93 19.2601C181.49 18.8401 180.23 18.2501 179.15 17.4901C178.07 16.7101 177.22 15.7301 176.6 14.5501C176 13.3501 175.7 11.9001 175.7 10.2001V0.600098H183.2V8.8501C183.2 10.4501 183.59 11.6701 184.37 12.5101C185.15 13.3501 186.26 13.9301 187.7 14.2501C189.16 14.5501 190.91 14.7001 192.95 14.7001C194.93 14.7001 196.65 14.5501 198.11 14.2501C199.57 13.9301 200.69 13.3501 201.47 12.5101C202.27 11.6701 202.67 10.4501 202.67 8.8501Z" fill="#FBF5F1"/>
<path d="M153.648 20.4C149.288 20.4 145.778 20.02 143.118 19.26C140.458 18.48 138.518 17.34 137.298 15.84C136.098 14.32 135.498 12.44 135.498 10.2C135.498 7.96 136.098 6.09 137.298 4.59C138.518 3.07 140.458 1.93 143.118 1.17C145.778 0.39 149.288 0 153.648 0C158.008 0 161.518 0.39 164.178 1.17C166.838 1.93 168.768 3.07 169.968 4.59C171.188 6.09 171.798 7.96 171.798 10.2C171.798 12.44 171.188 14.32 169.968 15.84C168.768 17.34 166.838 18.48 164.178 19.26C161.518 20.02 158.008 20.4 153.648 20.4ZM153.648 14.7C155.708 14.7 157.488 14.58 158.988 14.34C160.488 14.08 161.648 13.63 162.468 12.99C163.288 12.33 163.698 11.4 163.698 10.2C163.698 9 163.288 8.08 162.468 7.44C161.648 6.78 160.488 6.33 158.988 6.09C157.488 5.83 155.708 5.7 153.648 5.7C151.588 5.7 149.778 5.83 148.218 6.09C146.678 6.33 145.468 6.78 144.588 7.44C143.728 8.08 143.298 9 143.298 10.2C143.298 11.4 143.728 12.33 144.588 12.99C145.468 13.63 146.678 14.08 148.218 14.34C149.778 14.58 151.588 14.7 153.648 14.7Z" fill="#FBF5F1"/>
<path d="M135.648 0.600098L123.498 14.9101V19.8001H115.998V14.9101L103.848 0.600098H112.698L122.568 13.0501H117.018L126.798 0.600098H135.648Z" fill="#FBF5F1"/>
<path d="M75.7102 0.600098V14.1001H93.2002V19.8001H68.2102V0.600098H75.7102Z" fill="#FBF5F1"/>
<path d="M47.4094 0.600098V14.1001H64.8994V19.8001H39.9094V0.600098H47.4094Z" fill="#FBF5F1"/>
<path d="M10.0247 16.8901V12.3901H30.5447V16.8901H10.0247ZM3.30469 19.8001L16.1747 0.600098H24.5147L37.5047 19.8001H29.2547L18.1247 2.6101H22.5947L11.5547 19.8001H3.30469Z" fill="#FBF5F1"/>
</svg>
