<svg width="16" height="17" viewBox="0 0 16 17" fill="none" xmlns="http://www.w3.org/2000/svg">
<path d="M12.5006 4.63062V11.1306C12.5006 11.2632 12.4479 11.3904 12.3542 11.4842C12.2604 11.5779 12.1332 11.6306 12.0006 11.6306C11.868 11.6306 11.7408 11.5779 11.6471 11.4842C11.5533 11.3904 11.5006 11.2632 11.5006 11.1306V5.83687L4.35687 12.9869C4.2613 13.0793 4.13356 13.1309 4.00062 13.1309C3.86767 13.1309 3.73994 13.0793 3.64437 12.9869C3.55047 12.8921 3.4978 12.764 3.4978 12.6306C3.4978 12.4972 3.55047 12.3692 3.64437 12.2744L10.7944 5.13062H5.50062C5.36801 5.13062 5.24083 5.07794 5.14706 4.98417C5.05329 4.8904 5.00062 4.76322 5.00062 4.63062C5.00062 4.49801 5.05329 4.37083 5.14706 4.27706C5.24083 4.18329 5.36801 4.13062 5.50062 4.13062H12.0006C12.1332 4.13062 12.2604 4.18329 12.3542 4.27706C12.4479 4.37083 12.5006 4.49801 12.5006 4.63062Z" fill="#292929"/>
</svg>
