<svg width="16" height="16" viewBox="0 0 16 16" fill="none" xmlns="http://www.w3.org/2000/svg">
<path d="M14.4938 13.25C13.5608 11.6428 12.0675 10.4366 10.3 9.86251C11.1472 9.35873 11.8056 8.59075 12.1739 7.67653C12.5423 6.76231 12.6003 5.75244 12.3391 4.80204C12.0779 3.85164 11.5119 3.0133 10.728 2.4158C9.94407 1.8183 8.98569 1.49469 8.00004 1.49469C7.0144 1.49469 6.05602 1.8183 5.27213 2.4158C4.48823 3.0133 3.9222 3.85164 3.66097 4.80204C3.39974 5.75244 3.45777 6.76231 3.82615 7.67653C4.19452 8.59075 4.85287 9.35873 5.70004 9.86251C3.93261 10.4366 2.43925 11.6428 1.50629 13.25C1.46716 13.3068 1.4402 13.371 1.42709 13.4387C1.41398 13.5064 1.41501 13.5761 1.43013 13.6434C1.44524 13.7106 1.4741 13.7741 1.5149 13.8296C1.5557 13.8852 1.60755 13.9318 1.6672 13.9663C1.72686 14.0009 1.79301 14.0228 1.86152 14.0306C1.93003 14.0384 1.99941 14.0319 2.0653 14.0116C2.13119 13.9913 2.19216 13.9575 2.24439 13.9125C2.29662 13.8675 2.33898 13.8122 2.36879 13.75C2.94028 12.7625 3.76141 11.9426 4.7498 11.3726C5.73819 10.8027 6.85909 10.5026 8.00004 10.5026C9.141 10.5026 10.2619 10.8027 11.2503 11.3726C12.2387 11.9426 13.0598 12.7625 13.6313 13.75C13.6611 13.8122 13.7035 13.8675 13.7557 13.9125C13.8079 13.9575 13.8689 13.9913 13.9348 14.0116C14.0007 14.0319 14.0701 14.0384 14.1386 14.0306C14.2071 14.0228 14.2732 14.0009 14.3329 13.9663C14.3925 13.9318 14.4444 13.8852 14.4852 13.8296C14.526 13.7741 14.5549 13.7106 14.57 13.6434C14.5851 13.5761 14.5861 13.5064 14.573 13.4387C14.5599 13.371 14.5329 13.3068 14.4938 13.25ZM4.50004 6.00001C4.50004 5.30777 4.70532 4.63108 5.0899 4.05551C5.47449 3.47994 6.02111 3.03133 6.66065 2.76643C7.30019 2.50152 8.00393 2.43221 8.68286 2.56726C9.36179 2.70231 9.98543 3.03565 10.4749 3.52513C10.9644 4.01462 11.2977 4.63826 11.4328 5.31719C11.5678 5.99612 11.4985 6.69986 11.2336 7.3394C10.9687 7.97894 10.5201 8.52556 9.94454 8.91015C9.36897 9.29473 8.69228 9.50001 8.00004 9.50001C7.07179 9.50001 6.18155 9.13126 5.52517 8.47488C4.86879 7.8185 4.50004 6.92826 4.50004 6.00001Z" fill="#292929"/>
</svg>
