<svg width="32" height="33" viewBox="0 0 32 33" fill="none" xmlns="http://www.w3.org/2000/svg">
<path d="M28.8648 27C26.9611 23.7087 24.0273 21.3487 20.6036 20.23C22.2971 19.2218 23.6129 17.6856 24.3489 15.8572C25.0848 14.0289 25.2002 12.0095 24.6774 10.1092C24.1546 8.20889 23.0224 6.53274 21.4548 5.33815C19.8872 4.14357 17.9708 3.4966 15.9999 3.4966C14.0289 3.4966 12.1125 4.14357 10.5449 5.33815C8.97725 6.53274 7.84509 8.20889 7.32228 10.1092C6.79946 12.0095 6.91489 14.0289 7.65083 15.8572C8.38678 17.6856 9.70256 19.2218 11.3961 20.23C7.97235 21.3475 5.0386 23.7075 3.13485 27C3.06504 27.1138 3.01873 27.2405 2.99866 27.3725C2.97859 27.5045 2.98517 27.6392 3.01801 27.7687C3.05084 27.8981 3.10927 28.0197 3.18984 28.1262C3.27041 28.2327 3.3715 28.3219 3.48713 28.3887C3.60277 28.4555 3.73061 28.4985 3.86311 28.5151C3.99561 28.5316 4.1301 28.5215 4.25863 28.4853C4.38716 28.4491 4.50713 28.3874 4.61146 28.3041C4.71579 28.2208 4.80238 28.1174 4.8661 28C7.2211 23.93 11.3836 21.5 15.9999 21.5C20.6161 21.5 24.7786 23.93 27.1336 28C27.1973 28.1174 27.2839 28.2208 27.3882 28.3041C27.4926 28.3874 27.6125 28.4491 27.7411 28.4853C27.8696 28.5215 28.0041 28.5316 28.1366 28.5151C28.2691 28.4985 28.3969 28.4555 28.5126 28.3887C28.6282 28.3219 28.7293 28.2327 28.8099 28.1262C28.8904 28.0197 28.9489 27.8981 28.9817 27.7687C29.0145 27.6392 29.0211 27.5045 29.001 27.3725C28.981 27.2405 28.9347 27.1138 28.8648 27ZM8.99985 12.5C8.99985 11.1155 9.41039 9.76215 10.1796 8.61101C10.9487 7.45986 12.042 6.56265 13.3211 6.03284C14.6001 5.50303 16.0076 5.3644 17.3655 5.6345C18.7234 5.9046 19.9706 6.57128 20.9496 7.55025C21.9286 8.52922 22.5953 9.7765 22.8653 11.1344C23.1354 12.4922 22.9968 13.8997 22.467 15.1788C21.9372 16.4579 21.04 17.5511 19.8888 18.3203C18.7377 19.0895 17.3843 19.5 15.9999 19.5C14.1439 19.498 12.3646 18.7599 11.0523 17.4476C9.73997 16.1352 9.00184 14.3559 8.99985 12.5Z" fill="#2F5FC7"/>
</svg>
