<svg width="16" height="16" viewBox="0 0 16 16" fill="none" xmlns="http://www.w3.org/2000/svg">
<path d="M14.4937 13.2499C13.5608 11.6428 12.0674 10.4365 10.3 9.86244C11.1472 9.35867 11.8055 8.59069 12.1739 7.67647C12.5423 6.76225 12.6003 5.75237 12.3391 4.80198C12.0778 3.85158 11.5118 3.01324 10.7279 2.41574C9.94401 1.81824 8.98563 1.49463 7.99998 1.49463C7.01434 1.49463 6.05596 1.81824 5.27206 2.41574C4.48817 3.01324 3.92213 3.85158 3.66091 4.80198C3.39968 5.75237 3.45771 6.76225 3.82609 7.67647C4.19446 8.59069 4.85281 9.35867 5.69998 9.86244C3.93254 10.4365 2.43919 11.6428 1.50623 13.2499C1.4671 13.3067 1.44013 13.371 1.42703 13.4387C1.41392 13.5063 1.41495 13.576 1.43006 13.6433C1.44518 13.7106 1.47404 13.774 1.51484 13.8296C1.55564 13.8852 1.60749 13.9317 1.66714 13.9663C1.72679 14.0009 1.79295 14.0227 1.86146 14.0305C1.92997 14.0383 1.99935 14.0318 2.06524 14.0115C2.13113 13.9912 2.1921 13.9575 2.24433 13.9125C2.29656 13.8674 2.33891 13.8121 2.36873 13.7499C2.94022 12.7624 3.76135 11.9426 4.74974 11.3726C5.73813 10.8026 6.85903 10.5026 7.99998 10.5026C9.14094 10.5026 10.2618 10.8026 11.2502 11.3726C12.2386 11.9426 13.0597 12.7624 13.6312 13.7499C13.6611 13.8121 13.7034 13.8674 13.7556 13.9125C13.8079 13.9575 13.8688 13.9912 13.9347 14.0115C14.0006 14.0318 14.07 14.0383 14.1385 14.0305C14.207 14.0227 14.2732 14.0009 14.3328 13.9663C14.3925 13.9317 14.4443 13.8852 14.4851 13.8296C14.5259 13.774 14.5548 13.7106 14.5699 13.6433C14.585 13.576 14.586 13.5063 14.5729 13.4387C14.5598 13.371 14.5329 13.3067 14.4937 13.2499ZM4.49998 5.99994C4.49998 5.30771 4.70525 4.63102 5.08984 4.05545C5.47442 3.47988 6.02105 3.03127 6.66059 2.76637C7.30013 2.50146 8.00387 2.43215 8.6828 2.5672C9.36173 2.70224 9.98537 3.03559 10.4749 3.52507C10.9643 4.01455 11.2977 4.6382 11.4327 5.31713C11.5678 5.99606 11.4985 6.6998 11.2336 7.33934C10.9687 7.97888 10.5201 8.5255 9.94448 8.91009C9.36891 9.29467 8.69222 9.49994 7.99998 9.49994C7.07173 9.49994 6.18149 9.1312 5.52511 8.47482C4.86873 7.81844 4.49998 6.9282 4.49998 5.99994Z" fill="#0F7A60"/>
</svg>
