<svg width="24" height="24" viewBox="0 0 24 24" fill="none" xmlns="http://www.w3.org/2000/svg">
<path d="M20.7844 12.5344L14.0344 19.2844C13.891 19.423 13.6994 19.5005 13.5 19.5005C13.3006 19.5005 13.109 19.423 12.9656 19.2844C12.8248 19.1422 12.7458 18.9501 12.7458 18.75C12.7458 18.5499 12.8248 18.3578 12.9656 18.2156L18.4406 12.75H3.75C3.55109 12.75 3.36032 12.671 3.21967 12.5303C3.07902 12.3897 3 12.1989 3 12C3 11.8011 3.07902 11.6103 3.21967 11.4697C3.36032 11.329 3.55109 11.25 3.75 11.25H18.4406L12.9656 5.78438C12.846 5.63866 12.7849 5.45366 12.7942 5.26537C12.8034 5.07708 12.8824 4.89896 13.0157 4.76566C13.149 4.63236 13.3271 4.55341 13.5154 4.54416C13.7037 4.53491 13.8887 4.59603 14.0344 4.71563L20.7844 11.4656C20.9252 11.6078 21.0042 11.7999 21.0042 12C21.0042 12.2001 20.9252 12.3922 20.7844 12.5344Z" fill="#0F7A60"/>
</svg>
