<svg width="24" height="24" viewBox="0 0 24 24" fill="none" xmlns="http://www.w3.org/2000/svg">
<path d="M21.0001 12C21.0001 12.1989 20.9211 12.3897 20.7804 12.5303C20.6397 12.671 20.449 12.75 20.2501 12.75H5.55944L11.0344 18.2156C11.1753 18.3578 11.2543 18.5499 11.2543 18.75C11.2543 18.9501 11.1753 19.1422 11.0344 19.2844C10.8911 19.423 10.6995 19.5005 10.5001 19.5005C10.3007 19.5005 10.109 19.423 9.96569 19.2844L3.21569 12.5344C3.07486 12.3922 2.99585 12.2001 2.99585 12C2.99585 11.7999 3.07486 11.6078 3.21569 11.4656L9.96569 4.71563C10.1114 4.59603 10.2964 4.53491 10.4847 4.54416C10.673 4.55341 10.8511 4.63236 10.9844 4.76566C11.1177 4.89896 11.1967 5.07708 11.2059 5.26537C11.2152 5.45366 11.154 5.63866 11.0344 5.78438L5.55944 11.25H20.2501C20.449 11.25 20.6397 11.329 20.7804 11.4697C20.9211 11.6103 21.0001 11.8011 21.0001 12Z" fill="#0F7A60"/>
</svg>
