<svg width="24" height="24" viewBox="0 0 24 24" fill="none" xmlns="http://www.w3.org/2000/svg">
<path d="M21.5343 20.4656L17.4749 16.4156C18.9076 14.7099 19.6265 12.517 19.4816 10.2941C19.3367 8.07128 18.3393 5.99017 16.6974 4.48485C15.0554 2.97953 12.8957 2.16621 10.6687 2.21453C8.44163 2.26285 6.31922 3.16907 4.7441 4.74419C3.16898 6.31931 2.26276 8.44172 2.21444 10.6688C2.16612 12.8958 2.97944 15.0555 4.48476 16.6975C5.99008 18.3394 8.07118 19.3368 10.294 19.4817C12.5169 19.6266 14.7098 18.9077 16.4155 17.475L20.4655 21.5344C20.6089 21.673 20.8005 21.7505 20.9999 21.7505C21.1993 21.7505 21.3909 21.673 21.5343 21.5344C21.6751 21.3922 21.7541 21.2001 21.7541 21C21.7541 20.7999 21.6751 20.6078 21.5343 20.4656ZM3.7499 10.875C3.7499 9.4658 4.16778 8.08826 4.95068 6.91656C5.73359 5.74485 6.84636 4.83163 8.14828 4.29235C9.45021 3.75308 10.8828 3.61198 12.2649 3.8869C13.647 4.16182 14.9166 4.84041 15.913 5.83686C16.9095 6.83331 17.5881 8.10286 17.863 9.48497C18.1379 10.8671 17.9968 12.2997 17.4575 13.6016C16.9183 14.9035 16.005 16.0163 14.8333 16.7992C13.6616 17.5821 12.2841 18 10.8749 18C8.986 17.9975 7.17516 17.246 5.83951 15.9104C4.50385 14.5747 3.75238 12.7639 3.7499 10.875Z" fill="#2F5FC7"/>
</svg>
