<svg width="24" height="25" viewBox="0 0 24 25" fill="none" xmlns="http://www.w3.org/2000/svg">
<path fill-rule="evenodd" clip-rule="evenodd" d="M15.725 22.3494V14.6044H18.325L18.714 11.5864H15.724V9.65943C15.724 8.78543 15.967 8.18943 17.221 8.18943H18.819V5.48943C18.0451 5.40707 17.2673 5.36701 16.489 5.36943C14.185 5.36943 12.608 6.77643 12.608 9.35943V11.5864H10V14.6044H12.607V22.3494H3.104C2.494 22.3494 2 21.8554 2 21.2454V3.45343C2 2.84343 2.494 2.34943 3.104 2.34943H20.896C21.506 2.34943 22 2.84343 22 3.45343V21.2454C22 21.8554 21.506 22.3494 20.896 22.3494H15.725Z" fill="#FBF5F1"/>
</svg>
