<svg width="24" height="25" viewBox="0 0 24 25" fill="none" xmlns="http://www.w3.org/2000/svg">
<path fill-rule="evenodd" clip-rule="evenodd" d="M12 2.34943C9.284 2.34943 8.944 2.36143 7.877 2.40943C6.813 2.45843 6.086 2.62743 5.45 2.87443C4.78249 3.12527 4.17775 3.51876 3.678 4.02743C3.16936 4.5272 2.77587 5.13193 2.525 5.79943C2.278 6.43543 2.109 7.16243 2.06 8.22643C2.011 9.29343 2 9.63343 2 12.3494C2 15.0654 2.011 15.4054 2.06 16.4724C2.109 17.5364 2.278 18.2634 2.525 18.8994C2.7759 19.5669 3.16938 20.1716 3.678 20.6714C4.17779 21.18 4.78252 21.5735 5.45 21.8244C6.086 22.0714 6.813 22.2404 7.877 22.2894C8.944 22.3374 9.284 22.3494 12 22.3494C14.716 22.3494 15.056 22.3374 16.123 22.2894C17.187 22.2404 17.914 22.0714 18.55 21.8244C19.2175 21.5736 19.8222 21.1801 20.322 20.6714C20.8306 20.1717 21.2241 19.5669 21.475 18.8994C21.722 18.2634 21.891 17.5364 21.94 16.4724C21.988 15.4054 22 15.0654 22 12.3494C22 9.63343 21.988 9.29343 21.94 8.22643C21.891 7.16243 21.722 6.43543 21.475 5.79943C21.2241 5.13193 20.8306 4.5272 20.322 4.02743C19.8222 3.51876 19.2175 3.12527 18.55 2.87443C17.914 2.62743 17.187 2.45843 16.123 2.40943C15.056 2.36143 14.716 2.34943 12 2.34943ZM12 4.15143C14.67 4.15143 14.986 4.16143 16.04 4.20943C17.016 4.25443 17.545 4.41643 17.898 4.55343C18.364 4.73543 18.698 4.95243 19.048 5.30143C19.398 5.65143 19.614 5.98543 19.796 6.45143C19.932 6.80443 20.096 7.33343 20.14 8.30843C20.188 9.36343 20.198 9.67843 20.198 12.3494C20.198 15.0194 20.188 15.3354 20.14 16.3894C20.095 17.3654 19.932 17.8944 19.796 18.2474C19.6357 18.6818 19.3801 19.0748 19.048 19.3974C18.698 19.7474 18.364 19.9634 17.898 20.1454C17.545 20.2814 17.016 20.4454 16.041 20.4894C14.987 20.5374 14.671 20.5474 12 20.5474C9.33 20.5474 9.013 20.5374 7.96 20.4894C6.984 20.4444 6.455 20.2814 6.102 20.1454C5.66758 19.9852 5.27462 19.7296 4.952 19.3974C4.61986 19.0748 4.36426 18.6818 4.204 18.2474C4.067 17.8944 3.904 17.3654 3.86 16.3904C3.812 15.3354 3.802 15.0204 3.802 12.3494C3.802 9.67943 3.812 9.36343 3.86 8.30943C3.905 7.33343 4.067 6.80443 4.204 6.45143C4.386 5.98543 4.603 5.65143 4.952 5.30143C5.302 4.95143 5.636 4.73543 6.102 4.55343C6.455 4.41643 6.984 4.25343 7.959 4.20943C9.014 4.16143 9.329 4.15143 12 4.15143ZM12 15.6824C11.116 15.6824 10.2683 15.3313 9.64321 14.7062C9.01815 14.0812 8.667 13.2334 8.667 12.3494C8.667 11.4655 9.01815 10.6177 9.64321 9.99264C10.2683 9.36758 11.116 9.01643 12 9.01643C12.884 9.01643 13.7317 9.36758 14.3568 9.99264C14.9818 10.6177 15.333 11.4655 15.333 12.3494C15.333 13.2334 14.9818 14.0812 14.3568 14.7062C13.7317 15.3313 12.884 15.6824 12 15.6824ZM12 7.21443C11.3257 7.21443 10.6579 7.34725 10.0349 7.6053C9.41191 7.86336 8.84584 8.2416 8.36901 8.71843C7.89218 9.19526 7.51394 9.76134 7.25588 10.3843C6.99782 11.0074 6.865 11.6751 6.865 12.3494C6.865 13.0238 6.99782 13.6915 7.25588 14.3145C7.51394 14.9375 7.89218 15.5036 8.36901 15.9804C8.84584 16.4572 9.41191 16.8355 10.0349 17.0935C10.6579 17.3516 11.3257 17.4844 12 17.4844C13.3619 17.4844 14.668 16.9434 15.631 15.9804C16.594 15.0174 17.135 13.7113 17.135 12.3494C17.135 10.9875 16.594 9.68143 15.631 8.71843C14.668 7.75543 13.3619 7.21443 12 7.21443ZM18.538 7.01143C18.538 7.16901 18.507 7.32506 18.4467 7.47065C18.3863 7.61624 18.298 7.74852 18.1865 7.85995C18.0751 7.97138 17.9428 8.05978 17.7972 8.12008C17.6516 8.18039 17.4956 8.21143 17.338 8.21143C17.1804 8.21143 17.0244 8.18039 16.8788 8.12008C16.7332 8.05978 16.6009 7.97138 16.4895 7.85995C16.378 7.74852 16.2897 7.61624 16.2293 7.47065C16.169 7.32506 16.138 7.16901 16.138 7.01143C16.138 6.69317 16.2644 6.38794 16.4895 6.1629C16.7145 5.93785 17.0197 5.81143 17.338 5.81143C17.6563 5.81143 17.9615 5.93785 18.1865 6.1629C18.4116 6.38794 18.538 6.69317 18.538 7.01143Z" fill="#FBF5F1"/>
</svg>
