<svg width="218" height="51" viewBox="0 0 218 51" fill="none" xmlns="http://www.w3.org/2000/svg">
<path d="M185.85 30.8H217.05V36.5H185.85V30.8ZM197.7 36.1101H205.2V50H197.7V36.1101Z" fill="#2F5FC7"/>
<path d="M161.062 47.09V42.59H181.582V47.09H161.062ZM154.342 50L167.212 30.8H175.552L188.542 50H180.292L169.162 32.8101H173.632L162.592 50H154.342Z" fill="#2F5FC7"/>
<path d="M129.453 41.9001V44.3H152.253V50H121.953V30.8H152.193V36.5H129.453V38.9001H148.053V41.9001H129.453Z" fill="#2F5FC7"/>
<path d="M103.761 44.12L100.971 45.71V30.8H108.471V50H100.971L78.3813 36.92L81.1713 35.3V50H73.6713V30.8H81.1713L103.761 44.12Z" fill="#2F5FC7"/>
<path d="M43.7866 47.09V42.59H64.3066V47.09H43.7866ZM37.0666 50L49.9366 30.8H58.2766L71.2666 50H63.0166L51.8866 32.8101H56.3566L45.3166 50H37.0666Z" fill="#2F5FC7"/>
<path d="M36.7115 41.9899C36.6115 43.8899 35.9215 45.4799 34.6415 46.7599C33.3615 48.0399 31.4715 48.9999 28.9715 49.6399C26.4915 50.2799 23.3515 50.5999 19.5515 50.5999C16.6515 50.5999 14.0515 50.4399 11.7515 50.1199C9.45151 49.8199 7.49151 49.3 5.87151 48.56C4.25151 47.8 3.01151 46.77 2.15151 45.47C1.29151 44.17 0.861511 42.53 0.861511 40.5499C0.861511 38.5699 1.29151 36.9199 2.15151 35.5999C3.01151 34.2599 4.25151 33.1999 5.87151 32.4199C7.49151 31.6199 9.45151 31.0499 11.7515 30.7099C14.0515 30.3699 16.6515 30.2 19.5515 30.2C23.3515 30.2 26.5015 30.5499 29.0015 31.25C31.5015 31.9299 33.3915 32.9399 34.6715 34.2799C35.9515 35.6199 36.6415 37.2499 36.7415 39.1699H28.9415C28.7015 38.5299 28.2615 37.9699 27.6215 37.4899C26.9815 36.9899 26.0215 36.6 24.7415 36.32C23.4615 36.04 21.7315 35.8999 19.5515 35.8999C16.9915 35.8999 14.9115 36.06 13.3115 36.38C11.7115 36.68 10.5415 37.1699 9.80151 37.8499C9.06151 38.5299 8.69151 39.4299 8.69151 40.5499C8.69151 41.57 9.06151 42.4 9.80151 43.04C10.5415 43.68 11.7115 44.15 13.3115 44.45C14.9115 44.75 16.9915 44.9 19.5515 44.9C21.7315 44.9 23.4515 44.7699 24.7115 44.5099C25.9915 44.2499 26.9515 43.8999 27.5915 43.4599C28.2315 42.9999 28.6715 42.5099 28.9115 41.9899H36.7115Z" fill="#2F5FC7"/>
<path d="M203.532 9.05005V0.800049H211.032V10.4C211.032 12.1 210.712 13.55 210.072 14.75C209.452 15.93 208.582 16.9101 207.462 17.6901C206.342 18.4501 205.052 19.04 203.592 19.46C202.132 19.88 200.562 20.17 198.882 20.33C197.222 20.51 195.532 20.6 193.812 20.6C191.992 20.6 190.232 20.51 188.532 20.33C186.832 20.17 185.252 19.88 183.792 19.46C182.352 19.04 181.092 18.4501 180.012 17.6901C178.932 16.9101 178.082 15.93 177.462 14.75C176.862 13.55 176.562 12.1 176.562 10.4V0.800049H184.062V9.05005C184.062 10.65 184.452 11.87 185.232 12.71C186.012 13.55 187.122 14.1301 188.562 14.4501C190.022 14.7501 191.772 14.9 193.812 14.9C195.792 14.9 197.512 14.7501 198.972 14.4501C200.432 14.1301 201.552 13.55 202.332 12.71C203.132 11.87 203.532 10.65 203.532 9.05005Z" fill="#2F5FC7"/>
<path d="M154.51 20.6C150.15 20.6 146.64 20.22 143.98 19.46C141.32 18.68 139.38 17.54 138.16 16.04C136.96 14.52 136.36 12.64 136.36 10.4C136.36 8.15995 136.96 6.28995 138.16 4.78995C139.38 3.26995 141.32 2.12995 143.98 1.36995C146.64 0.589951 150.15 0.199951 154.51 0.199951C158.87 0.199951 162.38 0.589951 165.04 1.36995C167.7 2.12995 169.63 3.26995 170.83 4.78995C172.05 6.28995 172.66 8.15995 172.66 10.4C172.66 12.64 172.05 14.52 170.83 16.04C169.63 17.54 167.7 18.68 165.04 19.46C162.38 20.22 158.87 20.6 154.51 20.6ZM154.51 14.9C156.57 14.9 158.35 14.78 159.85 14.54C161.35 14.28 162.51 13.83 163.33 13.19C164.15 12.53 164.56 11.6 164.56 10.4C164.56 9.19995 164.15 8.27995 163.33 7.63995C162.51 6.97995 161.35 6.52995 159.85 6.28995C158.35 6.02995 156.57 5.89995 154.51 5.89995C152.45 5.89995 150.64 6.02995 149.08 6.28995C147.54 6.52995 146.33 6.97995 145.45 7.63995C144.59 8.27995 144.16 9.19995 144.16 10.4C144.16 11.6 144.59 12.53 145.45 13.19C146.33 13.83 147.54 14.28 149.08 14.54C150.64 14.78 152.45 14.9 154.51 14.9Z" fill="#2F5FC7"/>
<path d="M136.51 0.800049L124.36 15.1101V20H116.86V15.1101L104.71 0.800049H113.56L123.43 13.25H117.88L127.66 0.800049H136.51Z" fill="#2F5FC7"/>
<path d="M76.5717 0.800049V14.3H94.0617V20H69.0717V0.800049H76.5717Z" fill="#2F5FC7"/>
<path d="M48.2709 0.800049V14.3H65.7609V20H40.7709V0.800049H48.2709Z" fill="#2F5FC7"/>
<path d="M10.8862 17.09V12.59H31.4062V17.09H10.8862ZM4.1662 20L17.0362 0.800049H25.3762L38.3662 20H30.1162L18.9862 2.81005H23.4562L12.4162 20H4.1662Z" fill="#2F5FC7"/>
</svg>
