<svg width="24" height="25" viewBox="0 0 24 25" fill="none" xmlns="http://www.w3.org/2000/svg">
<path fill-rule="evenodd" clip-rule="evenodd" d="M12 2.34943C6.477 2.34943 2 6.82643 2 12.3494C2 16.5854 4.636 20.2034 8.355 21.6604C8.268 20.8694 8.189 19.6564 8.39 18.7924C8.572 18.0124 9.563 13.8224 9.563 13.8224C9.563 13.8224 9.264 13.2224 9.264 12.3374C9.264 10.9464 10.07 9.90943 11.074 9.90943C11.926 9.90943 12.338 10.5494 12.338 11.3174C12.338 12.1754 11.792 13.4574 11.51 14.6474C11.274 15.6424 12.01 16.4534 12.991 16.4534C14.768 16.4534 16.134 14.5794 16.134 11.8744C16.134 9.48043 14.414 7.80643 11.957 7.80643C9.113 7.80643 7.442 9.94043 7.442 12.1464C7.442 13.0054 7.773 13.9264 8.186 14.4274C8.22144 14.4652 8.24651 14.5114 8.25877 14.5617C8.27104 14.612 8.27008 14.6646 8.256 14.7144C8.18 15.0304 8.011 15.7094 7.978 15.8494C7.934 16.0314 7.833 16.0704 7.644 15.9824C6.394 15.4014 5.614 13.5754 5.614 12.1084C5.614 8.95343 7.905 6.05743 12.221 6.05743C15.69 6.05743 18.386 8.52943 18.386 11.8324C18.386 15.2794 16.213 18.0524 13.196 18.0524C12.184 18.0524 11.231 17.5264 10.905 16.9034C10.905 16.9034 10.403 18.8134 10.282 19.2814C10.056 20.1494 9.447 21.2394 9.039 21.9034C9.975 22.1924 10.969 22.3484 11.999 22.3484C17.524 22.3494 22 17.8714 22 12.3494C22 6.82743 17.523 2.34943 12 2.34943Z" fill="#FBF5F1"/>
</svg>
