<svg width="24" height="25" viewBox="0 0 24 25" fill="none" xmlns="http://www.w3.org/2000/svg">
<path d="M18.3207 7.12665C18.1844 7.05689 18.0518 6.9804 17.9232 6.8975C17.5494 6.6527 17.2066 6.36425 16.9023 6.03837C16.141 5.1755 15.8566 4.30013 15.7519 3.68724H15.7561C15.6686 3.17852 15.7048 2.84937 15.7103 2.84937H12.2426V16.1312C12.2426 16.3095 12.2426 16.4858 12.235 16.6599C12.235 16.6816 12.2329 16.7016 12.2316 16.7249C12.2316 16.7345 12.2316 16.7445 12.2295 16.7545C12.2295 16.757 12.2295 16.7595 12.2295 16.762C12.193 17.2386 12.0388 17.6989 11.7804 18.1026C11.5221 18.5062 11.1676 18.8408 10.7481 19.0769C10.3109 19.3233 9.81634 19.4525 9.31331 19.4519C7.69766 19.4519 6.38823 18.1469 6.38823 16.5353C6.38823 14.9238 7.69766 13.6188 9.31331 13.6188C9.61914 13.6185 9.92309 13.6662 10.2139 13.7601L10.2181 10.2627C9.33533 10.1498 8.43853 10.2193 7.58424 10.4668C6.72996 10.7144 5.93675 11.1346 5.25463 11.701C4.65694 12.2154 4.15446 12.8292 3.7698 13.5147C3.62342 13.7647 3.07113 14.7692 3.00425 16.3995C2.96219 17.3249 3.24275 18.2836 3.37651 18.6798V18.6882C3.46064 18.9215 3.78663 19.7177 4.31789 20.3889C4.74627 20.9273 5.2524 21.4003 5.81996 21.7926V21.7843L5.82837 21.7926C7.50711 22.9225 9.36841 22.8484 9.36841 22.8484C9.69061 22.8355 10.77 22.8484 11.9957 22.273C13.3552 21.6351 14.1291 20.6847 14.1291 20.6847C14.6236 20.1169 15.0167 19.4697 15.2917 18.7711C15.6055 17.954 15.7103 16.9741 15.7103 16.5824V9.53611C15.7523 9.56111 16.3126 9.92818 16.3126 9.92818C16.3126 9.92818 17.1198 10.4407 18.3792 10.7744C19.2827 11.0119 20.5 11.0619 20.5 11.0619V7.65204C20.0735 7.69787 19.2074 7.56455 18.3207 7.12665Z" fill="#FBF5F1"/>
</svg>
